<?xml version="1.0" encoding="UTF-8" standalone="no"?><!DOCTYPE svg PUBLIC "-//W3C//DTD SVG 1.1//EN" "http://www.w3.org/Graphics/SVG/1.1/DTD/svg11.dtd"><svg width="100%" height="100%" viewBox="0 0 185 139" version="1.1" xmlns="http://www.w3.org/2000/svg" xmlns:xlink="http://www.w3.org/1999/xlink" xml:space="preserve" xmlns:serif="http://www.serif.com/" style="fill-rule:evenodd;clip-rule:evenodd;stroke-linecap:round;stroke-linejoin:round;stroke-miterlimit:10;"><rect id="ArtBoard1" x="0" y="0" width="184.32" height="138.24" style="fill:none;"/><g id="ArtBoard11" serif:id="ArtBoard1"><g><g><g><path d="M157.36,76.498c-1.463,-1.191 -4.313,-2.376 -6.943,-3.174c-0.132,1.461 -0.259,3.069 -0.382,4.886c-0.022,0.328 -0.044,0.652 -0.066,0.973c0.928,1.078 1.825,2.002 2.634,2.519c1.557,0.993 2.923,1.26 4.297,-0.039c1.302,-1.231 1.892,-4 0.46,-5.165Z" style="fill:#fad9b0;fill-rule:nonzero;stroke:#000;stroke-width:1.29px;"/><path d="M135.118,130.272c3.031,2.42 8.097,-1.684 5.485,-5.125c-1.717,-2.261 -4.306,-3.852 -7.215,-4.478c-1.315,2.006 -2.979,3.976 -5.057,5.849c2.953,0.608 4.686,2.076 6.787,3.754Z" style="fill:#fad9b0;fill-rule:nonzero;stroke:#000;stroke-width:1.29px;"/><path d="M157.443,81c-0.639,-0.608 -1.065,-1.229 -2.271,-2.069" style="fill:none;fill-rule:nonzero;stroke:#000;stroke-width:1.29px;"/><path d="M139.934,129.787c-0.262,-1.05 -1.05,-3.122 -2.982,-4.183" style="fill:none;fill-rule:nonzero;stroke:#000;stroke-width:1.29px;"/><path d="M156.262,19.46c-1.201,-4.323 -4.914,-7.275 -11.469,-5.738c-2.273,0.533 -3.577,1.342 -4.262,2.345c1.592,1.126 3.101,2.451 4.549,3.989c0.07,0.075 0.137,0.151 0.206,0.226c0.427,-0.71 1.17,-1.217 2.057,-1.303c1.488,-0.144 2.812,0.947 2.957,2.438c0.127,1.307 -0.695,2.486 -1.903,2.854c1.087,1.684 2.014,3.519 2.814,5.588c4.52,-1.853 6.163,-6.404 5.051,-10.399Z" style="fill:#42b8d2;fill-rule:nonzero;stroke:#000;stroke-width:1.29px;"/><path d="M150.3,21.417c-0.145,-1.491 -1.469,-2.582 -2.957,-2.438c-0.887,0.086 -1.63,0.593 -2.057,1.303c1.162,1.257 2.194,2.569 3.111,3.989c1.208,-0.368 2.03,-1.547 1.903,-2.854Z" style="fill-rule:nonzero;"/><path d="M84.068,26.875c-1.509,3.795 -2.679,8.258 -3.414,13.598c-1.322,9.609 -0.091,14.637 -1.475,23.851c-0.091,0.605 -0.193,1.228 -0.307,1.872c-0.194,1.084 -0.382,2.171 -0.566,3.257c-1.909,11.259 -3.328,22.509 -4.481,30.198c-1.059,7.058 1.281,13.779 6.435,19.203c2.038,2.144 7.448,5.456 10.33,7.134c5.044,2.937 7.225,3.601 12.248,4.302c10.699,1.494 18.903,0.508 25.131,-1.821c2.62,-0.98 4.891,-2.201 6.851,-3.584c4.892,-3.451 7.85,-7.906 9.48,-12.123c3.864,-9.995 4.586,-17.61 5.669,-33.578l0.066,-0.973c0.123,-1.817 0.25,-3.426 0.382,-4.886c0.726,-8.002 1.606,-11.563 2.739,-20.653c0.964,-7.736 1.17,-13.542 0.51,-18.381c-0.299,-2.198 -0.777,-4.198 -1.445,-6.087c-0.563,-1.594 -1.264,-3.11 -2.103,-4.602c-0.05,-0.089 -0.098,-0.178 -0.15,-0.267c-1.053,-1.831 -2.213,-3.469 -3.502,-4.933c-5.59,-6.351 -13.582,-9.417 -25.585,-10.707c-10.408,-1.118 -18.209,-0.43 -26.298,4.965l-0.005,0.007c-0.716,-0.713 -1.8,-1.316 -3.503,-1.788c-6.489,-1.798 -10.317,1.003 -11.691,5.274c-1.288,4.004 0.1,8.734 4.684,10.722Zm3.24,-5.317c-1.454,-0.228 -2.464,-1.579 -2.263,-3.046c0.205,-1.483 1.571,-2.521 3.053,-2.317c0.869,0.12 1.581,0.641 1.983,1.35l-2.773,4.013Z" style="fill:#42b8d2;stroke:#000;stroke-width:1.29px;"/><path d="M88.132,16.137c-1.482,-0.204 -2.849,0.833 -3.053,2.317c-0.202,1.467 0.809,2.818 2.263,3.046c0.7,-1.176 1.439,-2.275 2.214,-3.305c0.183,-0.242 0.37,-0.477 0.559,-0.709c-0.402,-0.708 -1.115,-1.23 -1.983,-1.349Z" style="fill-rule:nonzero;"/><g><path d="M143.42,63.519c3.925,0.873 4.248,1.536 5.53,3.246c1.227,1.638 2.575,4.044 4.827,7.471c1.153,1.756 1.475,3.586 1.041,6.216c-0.545,3.305 -2.698,13.813 -2.698,13.813c-0.667,3.417 -3.925,5.753 -7.376,5.287l-0.058,-0.009l-0.271,-0.045l-0.054,-0.01l-15.348,-2.998c-3.418,-0.667 -5.753,-3.925 -5.287,-7.376l0.009,-0.058l0.045,-0.271l0.01,-0.054l4.197,-21.487c0.667,-3.418 3.925,-5.753 7.376,-5.287l0.058,0.009l0.272,0.045l0.053,0.009l7.674,1.499Z" style="fill:#fff;"/><path d="M141.822,64.529c3.925,0.872 4.248,1.535 5.53,3.245c1.227,1.639 2.575,4.044 4.827,7.471c1.153,1.756 1.475,3.586 1.041,6.216c-0.545,3.305 -2.698,13.813 -2.698,13.813c-0.667,3.418 -3.925,5.753 -7.376,5.287l-0.058,-0.009l-0.271,-0.045l-0.054,-0.01l-15.348,-2.998c-3.418,-0.667 -5.753,-3.925 -5.287,-7.376l0.009,-0.058l0.045,-0.271l0.01,-0.054l4.197,-21.487c0.667,-3.418 3.925,-5.753 7.376,-5.287l0.058,0.009l0.271,0.045l0.054,0.01l7.674,1.499Z" style="fill:#42b8d2;"/><path d="M139.9,65.442c3.925,0.872 4.248,1.535 5.529,3.245c1.228,1.639 2.576,4.044 4.827,7.471c1.154,1.756 1.476,3.586 1.042,6.216c-0.545,3.305 -2.698,13.813 -2.698,13.813c-0.668,3.418 -3.926,5.753 -7.377,5.287l-0.057,-0.009l-0.272,-0.045l-0.054,-0.01l-15.347,-2.998c-3.418,-0.667 -5.753,-3.925 -5.287,-7.376l0.008,-0.057l0.046,-0.272l0.009,-0.054l4.198,-21.487c0.667,-3.418 3.925,-5.753 7.376,-5.287l0.057,0.009l0.272,0.045l0.054,0.01l7.674,1.499Z" style="fill:#3a7b9a;"/><path d="M139.531,67.329l0.178,0.045c0.686,0.221 1.136,0.888 1.082,1.607l-0.025,0.182l-1.199,6.139l-0.037,0.232c-0.181,1.526 0.788,2.97 2.268,3.381l0.239,0.057l6.139,1.199l0.178,0.046c0.686,0.22 1.136,0.888 1.082,1.607l-0.025,0.181l-2.698,13.814c-0.474,2.424 -2.785,4.08 -5.232,3.75l-0.272,-0.045l-15.348,-2.998c-2.424,-0.474 -4.081,-2.785 -3.75,-5.233l0.045,-0.271l4.197,-21.488c0.474,-2.424 2.785,-4.08 5.233,-3.75l0.271,0.045l7.674,1.5Zm9.279,10.777c-0,0 -5.156,-1.005 -6.745,-1.315c-0.121,-0.023 -0.228,-0.095 -0.296,-0.198c-0.069,-0.103 -0.092,-0.229 -0.067,-0.35c0.348,-1.632 1.505,-7.056 1.505,-7.056l5.603,8.919Z" style="fill:#fff;"/></g><path d="M119.073,72.787c2.794,0.791 5.997,2.073 7.579,3.361c1.432,1.165 0.842,3.934 -0.46,5.164c-1.374,1.3 -2.74,1.032 -4.297,0.039c-1.021,-0.652 -2.181,-1.951 -3.366,-3.39c0.116,-1.096 0.229,-2.193 0.335,-3.289c0.063,-0.651 0.133,-1.278 0.209,-1.885Z" style="fill:#fad9b0;fill-rule:nonzero;stroke:#000;stroke-width:1.29px;"/><path d="M81.124,126.291c-1.585,4.019 4.321,6.337 6.807,3.359c1.969,-2.358 4.773,-3.098 5.905,-5.32c0.068,-0.138 0.076,-0.297 0.024,-0.441c-0.939,-2.514 -3.809,-3.9 -6.977,-3.419c-0.068,0.01 -0.133,0.033 -0.193,0.067c-2.599,1.468 -4.61,3.327 -5.566,5.754Z" style="fill:#fad9b0;fill-rule:nonzero;stroke:#000;stroke-width:1.29px;"/><path d="M126.735,80.65c-0.639,-0.608 -1.065,-1.229 -2.272,-2.069" style="fill:none;fill-rule:nonzero;stroke:#000;stroke-width:1.29px;"/><path d="M83.434,130.146c0.047,-1.081 0.378,-2.932 1.891,-4.703" style="fill:none;fill-rule:nonzero;stroke:#000;stroke-width:1.29px;"/><path d="M115.368,20.167c6.451,0.887 10.992,6.674 10.133,12.914c-0.858,6.24 -6.793,10.585 -13.245,9.697c-6.451,-0.888 -10.991,-6.675 -10.133,-12.914c0.859,-6.24 6.794,-10.585 13.245,-9.697Z" style="fill:#fff;stroke:#000;stroke-width:1.29px;"/><path d="M145.637,21.531c6.22,0.856 10.597,6.435 9.769,12.451c-0.828,6.015 -6.549,10.204 -12.769,9.348c-6.219,-0.856 -10.597,-6.435 -9.769,-12.45c0.828,-6.016 6.55,-10.205 12.769,-9.349Z" style="fill:#fff;stroke:#000;stroke-width:1.24px;"/><path d="M147.404,30.166c-1.73,1.426 -1.976,3.988 -0.55,5.718c1.427,1.729 3.989,1.976 5.719,0.549c1.729,-1.426 1.975,-3.988 0.549,-5.718c-1.426,-1.729 -3.989,-1.976 -5.718,-0.549Z"/><path d="M149.25,30.375c-0.494,0.407 -0.565,1.14 -0.157,1.634c0.407,0.494 1.139,0.564 1.634,0.157c0.494,-0.408 0.564,-1.14 0.157,-1.634c-0.408,-0.494 -1.14,-0.565 -1.634,-0.157Z" style="fill:#fff;"/><path d="M119.04,27.362c-2.157,0.611 -3.413,2.858 -2.802,5.015c0.611,2.157 2.859,3.413 5.016,2.802c2.157,-0.612 3.412,-2.859 2.801,-5.016c-0.611,-2.157 -2.859,-3.412 -5.015,-2.801Z"/><path d="M119.83,28.122c-0.616,0.174 -0.975,0.816 -0.8,1.432c0.175,0.617 0.817,0.975 1.433,0.801c0.616,-0.175 0.975,-0.817 0.8,-1.433c-0.174,-0.616 -0.816,-0.975 -1.433,-0.8Z" style="fill:#fff;"/><path d="M128.203,48.635c-2.312,-0.164 -2.749,0.836 -4.768,1.015c-0.179,1.22 -0.416,2.89 -0.682,4.88c-0.573,4.286 4.971,3.805 5.198,1.236c0.173,-1.955 0.486,-5.505 0.627,-7.093c-0.12,-0.016 -0.243,-0.029 -0.375,-0.038Z" style="fill:#fff;fill-rule:nonzero;stroke:#000;stroke-width:1.29px;"/><path d="M127.951,55.765c-0.227,2.569 5.148,4.015 5.335,-0.305c0.089,-2.06 0.149,-3.782 0.187,-5.022c-2.492,-0.335 -2.698,-1.493 -4.895,-1.766c-0.14,1.588 -0.454,5.139 -0.627,7.093Z" style="fill:#fff;fill-rule:nonzero;stroke:#000;stroke-width:1.29px;"/><path d="M137.083,45.094c-0.844,-1.085 -1.902,-1.729 -3.357,-2.124c-0.885,1.079 -2.911,1.721 -5.199,1.519c-2.201,-0.194 -4.026,-1.115 -4.77,-2.268c-1.609,0.163 -2.809,0.655 -3.847,1.658c-2.035,1.969 -1.42,5.245 1.047,5.636c1.054,0.168 1.843,0.191 2.478,0.135c2.019,-0.18 2.456,-1.179 4.768,-1.015c0.132,0.009 0.255,0.022 0.375,0.037c2.197,0.273 2.402,1.43 4.895,1.766c0.493,0.066 1.075,0.1 1.78,0.089c2.498,-0.04 3.568,-3.197 1.83,-5.433Z" style="fill:#fad9b0;fill-rule:nonzero;stroke:#000;stroke-width:1.29px;"/><path d="M128.527,44.489c2.288,0.202 4.314,-0.44 5.2,-1.519c0.267,-0.326 0.432,-0.692 0.467,-1.087c0.151,-1.703 -2.143,-3.296 -5.122,-3.56c-2.98,-0.263 -5.517,0.904 -5.668,2.607c-0.039,0.445 0.09,0.882 0.354,1.291c0.743,1.153 2.568,2.074 4.769,2.268Z" style="fill-rule:nonzero;"/></g></g><path d="M40.423,43.441l27.178,0" style="fill:none;stroke:#42b8d2;stroke-width:2.5px;stroke-miterlimit:1.5;"/><path d="M40.423,73.227l19.695,-0" style="fill:none;stroke:#3a7b9a;stroke-width:2.5px;stroke-miterlimit:1.5;"/><path d="M7.201,58.334l51.48,0" style="fill:none;stroke:#42b8d2;stroke-width:2.5px;stroke-miterlimit:1.5;"/></g></g></svg>